<?xml version="1.0" encoding="UTF-8" standalone="no"?>
<svg xmlns:dc="http://purl.org/dc/elements/1.1/" xmlns:cc="http://creativecommons.org/ns#"
  xmlns:rdf="http://www.w3.org/1999/02/22-rdf-syntax-ns#" xmlns:svg="http://www.w3.org/2000/svg"
  xmlns="http://www.w3.org/2000/svg" xmlns:xlink="http://www.w3.org/1999/xlink" version="1.1" id="Layer_1" x="0px"
  y="0px" viewBox="0 0 454.87845 454.87845" xml:space="preserve" width="454.87845" height="454.87845">
  <metadata id="metadata85">
    <rdf:RDF>
      <cc:Work rdf:about="">
        <dc:format>image/svg+xml</dc:format>
        <dc:type rdf:resource="http://purl.org/dc/dcmitype/StillImage" />
        <dc:title></dc:title>
      </cc:Work>
    </rdf:RDF>
  </metadata>
  <defs id="defs83" />
  <style type="text/css" id="style2">
    @import url('https://fonts.googleapis.com/css?family=Roboto:300,400,700');

    .st0 {
      fill: #383838;
    }

    .st1 {
      font-family: 'Roboto';
      font-weight: 700;
    }

    .st2 {
      font-size: 14px;
    }

    .st3 {
      opacity: 0.5;
    }

    .st4 {
      font-family: 'Roboto';
      font-weight: 700;
    }

    .st5 {
      fill: #231F20;
      stroke: #231F20;
      stroke-miterlimit: 10;
    }

    .st6 {
      fill: none;
      stroke: #000000;
      stroke-width: 0.5;
      stroke-linecap: square;
      stroke-miterlimit: 1;
    }

    .st7 {
      fill: #231F20;
    }

    .st8 {
      font-family: 'Roboto';
      font-weight: 300;
    }

    .st9 {
      fill: #77787B;
    }
  </style>
  <image xlink:href="mapa-p1.webp" y="-2.4868102" x="-9.5736952" width="960" height="463" preserveAspectRatio="none"
    id="image857" />


  <path class="st5"
    d="m 260.4263,274.11319 c -1.4,0 -2.5,1.1 -2.5,2.5 0,1.4 1.1,2.5 2.5,2.5 1.4,0 2.5,-1.1 2.5,-2.5 0,-1.4 -1.1,-2.5 -2.5,-2.5"
    id="path16" />
  <g id="g46" transform="translate(-9.5736956,23.51319)">
    <g id="g26">
      <g id="g24">
        <path class="st6" d="m 204.4,267.2 c -2.3,-12.6 -14.2,-21.1 -26.9,-19.1" id="path18" />
        <g id="g22">
          <polygon points="204.3,267 202.3,265.6 202,266 204.5,267.7 206,265.1 205.6,264.9 " id="polygon20" />
        </g>
      </g>
    </g>
    <path class="st5"
      d="m 227.9,106.5 c -1.4,0 -2.5,1.1 -2.5,2.5 0,1.4 1.1,2.5 2.5,2.5 1.4,0 2.5,-1.1 2.5,-2.5 0,-1.4 -1.1,-2.5 -2.5,-2.5"
      id="path28" />
    <path class="st5"
      d="m 418.4,150 c -1.4,0 -2.5,1.1 -2.5,2.5 0,1.4 1.1,2.5 2.5,2.5 1.4,0 2.5,-1.1 2.5,-2.5 0,-1.4 -1.1,-2.5 -2.5,-2.5"
      id="path30" />
    <path class="st5"
      d="m 98.7,348.1 c -1.4,0 -2.5,1.1 -2.5,2.5 0,1.4 1.1,2.5 2.5,2.5 1.4,0 2.5,-1.1 2.5,-2.5 0,-1.4 -1.1,-2.5 -2.5,-2.5"
      id="path32" />
    <path class="st5"
      d="m 314.2,131 c -1.4,0 -2.5,1.1 -2.5,2.5 0,1.4 1.1,2.5 2.5,2.5 1.4,0 2.5,-1.1 2.5,-2.5 0,-1.4 -1.1,-2.5 -2.5,-2.5"
      id="path34" />
    <text transform="translate(235.3085,113.823)" class="st7 st8 st2" id="text36">Beijing</text>
    <text transform="translate(38.4949,354.7959)" class="st9 st8 st2" id="text38">Bangkok</text>
    <g id="g42">
      <text transform="translate(423.3054,157.0259)" class="st9 st8 st2" id="text40">Tokio</text>
    </g>
    <text transform="translate(100.6277,249.9622)" class="st7 st8 st2" id="text44">Hong Kong</text>
  </g>

</svg>
